<?xml version="1.0" encoding="UTF-8" standalone="no"?>
<svg
   xmlns:dc="http://purl.org/dc/elements/1.1/"
   xmlns:cc="http://creativecommons.org/ns#"
   xmlns:rdf="http://www.w3.org/1999/02/22-rdf-syntax-ns#"
   xmlns:svg="http://www.w3.org/2000/svg"
   xmlns="http://www.w3.org/2000/svg"
   viewBox="0 0 90 90.000001"
   version="1.1"
   id="svg4874"
   height="90"
   width="90">
  <defs
     id="defs4876" />
  <metadata
     id="metadata4879">
    <rdf:RDF>
      <cc:Work
         rdf:about="">
        <dc:format>image/svg+xml</dc:format>
        <dc:type
           rdf:resource="http://purl.org/dc/dcmitype/StillImage" />
        <dc:title></dc:title>
      </cc:Work>
    </rdf:RDF>
  </metadata>
  <g
     transform="translate(67.857146,-84.50504)"
     id="layer1">
    <g
       style="display:inline"
       id="g4845"
       transform="matrix(0,-1,-1,0,373.50506,516.50504)">
      <g
         style="display:inline"
         transform="matrix(0,-1,-1,0,1394.3622,441.36221)"
         id="g1724">
        <g
           style="display:inline"
           id="g1726"
           transform="matrix(0.99934414,0,0,1,-106.92982,549.00002)">
          <rect
             transform="scale(1,-1)"
             y="-503.36218"
             x="107"
             height="90.000015"
             width="90.059067"
             id="rect1728"
             style="opacity:0.05;color:#000000;fill:none;stroke:none;stroke-width:2;marker:none;visibility:visible;display:inline;overflow:visible;enable-background:accumulate" />
          <g
             id="g4152">
            <path
               style="font-style:normal;font-variant:normal;font-weight:normal;font-stretch:normal;text-indent:0;text-align:start;text-decoration:none;line-height:normal;letter-spacing:normal;word-spacing:normal;text-transform:none;direction:ltr;block-progression:tb;writing-mode:lr-tb;text-anchor:start;baseline-shift:baseline;color:#000000;color-interpolation:sRGB;color-interpolation-filters:linearRGB;fill:#808080;fill-opacity:1;fill-rule:nonzero;stroke:none;stroke-width:12.00393677;marker:none;visibility:visible;display:inline;overflow:visible;isolation:auto;mix-blend-mode:normal;enable-background:accumulate;clip-rule:nonzero;color-rendering:auto;image-rendering:auto;shape-rendering:auto;text-rendering:auto;font-family:sans-serif;-inkscape-font-specification:sans-serif"
               d="m 175.75185,474.61695 -7.48567,7.49023 17.0117,17 7.48372,-7.49023 z"
               id="path1736-1" />
            <ellipse
               style="color:#000000;fill:none;stroke:#808080;stroke-width:6.00196838;stroke-linecap:round;stroke-linejoin:round;stroke-miterlimit:4;stroke-opacity:1;stroke-dasharray:none;stroke-dashoffset:0;marker:none;visibility:visible;display:inline;overflow:visible;enable-background:accumulate"
               id="path4116"
               cx="152.02943"
               cy="458.36395"
               rx="30.020548"
               ry="30.000891" />
          </g>
          <g
             transform="matrix(0.46007413,0,0,0.45043076,160.23507,399.75967)"
             id="layer1-8">
            <g
               transform="translate(-763.86,94.143)"
               id="g4320">
              <rect
                 x="696"
                 y="-9.6378002"
                 width="90"
                 height="90"
                 style="color:#000000;fill:none"
                 id="rect4318" />
              <path
                 d="m 762.8,-4.6378 c 7.8043,1.7669 21.144,4.3949 17.599,16.272 -4.506,15.095 -15.208,26.833 -25.718,37.346 l 2.8e-4,2.73e-4 c -0.0104,0.01003 -0.0208,0.02085 -0.0313,0.03127 -0.0104,0.01003 -0.0208,0.02085 -0.0313,0.03127 l -2.9e-4,-2.73e-4 c -10.51,10.509 -22.25,21.212 -37.35,25.718 -11.87,3.545 -14.5,-9.795 -16.27,-17.599 l 25.208,-11.085 8.8776,5.3263 c 3.6553,-2.3321 7.9671,-6.1839 11.87,-10.085 3.9009,-3.9032 7.7527,-8.2151 10.085,-11.87 l -5.3263,-8.8776 11.085,-25.208 z"
                 style="color:#000000;fill:#808080"
                 id="path4185" />
            </g>
          </g>
        </g>
      </g>
    </g>
  </g>
</svg>
