<?xml version="1.0" encoding="UTF-8" standalone="no"?>
<svg
   xmlns:dc="http://purl.org/dc/elements/1.1/"
   xmlns:cc="http://creativecommons.org/ns#"
   xmlns:rdf="http://www.w3.org/1999/02/22-rdf-syntax-ns#"
   xmlns:svg="http://www.w3.org/2000/svg"
   xmlns="http://www.w3.org/2000/svg"
   id="svg925"
   version="1.1"
   width="512"
   viewBox="0 0 512 512"
   height="512"
   style="enable-background:new">
  <metadata
     id="metadata929">
    <rdf:RDF>
      <cc:Work
         rdf:about="">
        <dc:format>image/svg+xml</dc:format>
        <dc:type
           rdf:resource="http://purl.org/dc/dcmitype/StillImage" />
        <dc:title></dc:title>
      </cc:Work>
    </rdf:RDF>
  </metadata>
  <defs
     id="defs897">
    <linearGradient
       x1="256"
       y1="18"
       gradientTransform="matrix(1,0,0,1.076,0,-19.36)"
       x2="256"
       gradientUnits="userSpaceOnUse"
       y2="494"
       id="a">
      <stop
         id="stop892"
         offset="0"
         style="stop-color:#eaeaea" />
      <stop
         id="stop894"
         offset="1"
         style="stop-color:#f4f4f4" />
    </linearGradient>
    <clipPath
       id="clipPath4938"
       clipPathUnits="userSpaceOnUse">
      <g
         id="use4940">
        <rect
           y="0"
           x="0"
           height="512"
           width="512"
           id="rect5337"
           style="fill:#8b8b8b;fill-opacity:0.11372549" />
      </g>
    </clipPath>
  </defs>
  <path
     id="path909"
     style="color:#000000;display:none;fill:#ffffff;stroke:#cccccc;stroke-width:4;enable-background:accumulate"
     d="m -208.3,605.6 c -7.842,0 -14.55,5.029 -17.32,12.19 -0.0612,-6.7e-4 -0.1208,0 -0.1823,0 -7.088,0 -12.83,6.002 -12.83,13.41 0,7.404 5.746,13.41 12.83,13.41 h 17.5 16.33 c 5.155,0 9.333,-4.365 9.333,-9.75 0,-4.543 -2.974,-8.363 -7,-9.445 0.001,-0.1029 0,-0.2015 0,-0.3047 0,-10.77 -8.357,-19.5 -18.67,-19.5 z" />
  <path
     id="path911"
     d="m 288.9,828.1 c -6.349,0 -11.78,4.072 -14.02,9.867 -0.0496,-5.5e-4 -0.0978,0 -0.1476,0 -5.738,0 -10.39,4.86 -10.39,10.85 0,5.995 4.652,10.85 10.39,10.85 h 14.17 13.22 c 4.173,0 7.557,-3.534 7.557,-7.894 0,-3.678 -2.408,-6.771 -5.667,-7.647 10e-4,-0.0833 0,-0.1632 0,-0.2467 0,-8.719 -6.766,-15.79 -15.11,-15.79 z"
     style="color:#000000;display:none;fill:none;stroke:#cccccc;stroke-width:4;enable-background:accumulate" />
  <g
     id="g923"
     transform="translate(0,-558.4)"
     style="display:none">
    <path
       id="path913"
       style="display:inline;fill:#0000ff;fill-opacity:0.08117999;stroke:#0000ff"
       d="M 166.1,576.4 H 346 c 145.3,0 166.1,20.74 166.1,165.9 v 144.2 c 0,145.2 -20.76,165.9 -166.1,165.9 H 166.1 C 20.8,1052.4 0,1032.4 0,886.9 V 742.7 C 0,597.5 20.76,576.8 166.1,576.8 Z" />
    <circle
       id="circle915"
       r="120"
       cy="238"
       transform="matrix(1.2,0,0,1.2,-51.2,528.8)"
       cx="256"
       style="color:#000000;display:inline;fill:#0000ff;fill-opacity:0.08117999;stroke:#0000ff;stroke-width:0.83329999;enable-background:accumulate" />
    <rect
       id="rect917"
       x="120"
       y="678.40002"
       width="272"
       height="272"
       style="color:#000000;display:inline;fill:#0000ff;fill-opacity:0.08117999;stroke:#0000ff;stroke-linecap:round;stroke-linejoin:round;enable-background:accumulate" />
    <rect
       id="rect919"
       x="104"
       y="694.40002"
       width="304"
       height="240"
       style="color:#000000;display:inline;fill:#0000ff;fill-opacity:0.08117999;stroke:#0000ff;stroke-linecap:round;stroke-linejoin:round;enable-background:accumulate" />
    <rect
       id="rect921"
       x="136"
       y="662.40002"
       width="240"
       height="304"
       style="color:#000000;display:inline;fill:#0000ff;fill-opacity:0.08117999;stroke:#0000ff;stroke-linecap:round;stroke-linejoin:round;enable-background:accumulate" />
  </g>
  <flowRoot
     style="font-style:normal;font-weight:normal;font-size:40px;line-height:1.25;font-family:sans-serif;letter-spacing:0px;word-spacing:0px;fill:#000000;fill-opacity:1;stroke:none"
     id="flowRoot4803"
     xml:space="preserve"><flowRegion
       id="flowRegion4805"><rect
         y="202.41861"
         x="-108.35349"
         height="92.87442"
         width="501.28372"
         id="rect4807" /></flowRegion><flowPara
       style="font-size:85.33333588px"
       id="flowPara4809">search</flowPara></flowRoot>  <flowRoot
     style="font-style:normal;font-weight:normal;font-size:40px;line-height:1.25;font-family:sans-serif;letter-spacing:0px;word-spacing:0px;fill:#000000;fill-opacity:1;stroke:none"
     id="flowRoot4836"
     xml:space="preserve"><flowRegion
       id="flowRegion4838"><rect
         y="223.85117"
         x="400.07443"
         height="67.488373"
         width="102.0186"
         id="rect4840" /></flowRegion><flowPara
       style="font-size:64px;fill:#ffffff;fill-opacity:1"
       id="flowPara4842">.ch</flowPara></flowRoot>  <rect
     style="fill:#323232;fill-opacity:0.1254902"
     y="0"
     x="0"
     height="512"
     width="512"
     id="rect293" />
  <rect
     y="0"
     x="0"
     height="512"
     width="512"
     id="rect900"
     style="opacity:1;fill:#252525;fill-opacity:1;stroke:none;stroke-width:0.95918602" />
  <path
     id="rect900-6"
     d="M 512,-2.5530384e-6 C 512,170.66667 511.99999,341.33333 511.99999,512 341.33333,512 170.66666,512 -1.5884996e-6,512 -1.6203758,436.98605 -3.2407413,361.97209 -4.8611155,286.95814 167.42593,191.30543 339.71296,95.65271 512,-2.5530384e-6 Z"
     style="opacity:1;fill:#8b8b8b;fill-opacity:0.11372549;stroke:none;stroke-width:1.701419;enable-background:new" />
  <path
     id="rect900-6-7"
     d="M 512,-5.0576276e-8 C 512.61298,95.255828 514.21981,190.51197 514.17961,285.76759 513.45307,361.17839 512.72653,436.5892 511.99999,512 439.95456,340.58283 367.90914,169.16565 295.86371,-2.2515222 367.90914,-1.5010148 439.95457,-0.75050743 512,-5.0576276e-8 Z"
     style="opacity:1;fill:#8b8b8b;fill-opacity:0.11372549;stroke:none;stroke-width:1.70570922;enable-background:new" />
  <flowRoot
     transform="matrix(1.2063268,0,0,1.2063268,240.65272,93.408446)"
     style="font-style:normal;font-weight:normal;font-size:40px;line-height:1.25;font-family:sans-serif;letter-spacing:0px;word-spacing:0px;fill:#ffffff;fill-opacity:1;stroke:none"
     id="flowRoot4811"
     xml:space="preserve"><flowRegion
       style="fill:#ffffff;fill-opacity:1"
       id="flowRegion4813"><rect
         style="fill:#ffffff;fill-opacity:1"
         y="73.823257"
         x="-190.51163"
         height="557.24652"
         width="1341.9163"
         id="rect4815" /></flowRegion><flowPara
       style="font-size:96px;fill:#ffffff;fill-opacity:1"
       id="flowPara4817">search</flowPara></flowRoot>  <rect
     y="198.46512"
     x="394.93024"
     height="92.87442"
     width="107.16279"
     id="rect4834"
     style="fill:#b00000;fill-opacity:1" />
  <flowRoot
     transform="matrix(1.0961573,0,0,1.0480787,368.77879,209.56739)"
     style="font-style:normal;font-weight:normal;font-size:40px;line-height:1.25;font-family:sans-serif;letter-spacing:0px;word-spacing:0px;fill:#000000;fill-opacity:1;stroke:none"
     id="flowRoot4844"
     xml:space="preserve"><flowRegion
       id="flowRegion4846"><rect
         y="16.669767"
         x="21.432558"
         height="400.07443"
         width="372.68839"
         id="rect4848" /></flowRegion><flowPara
       style="font-size:64px;fill:#ffffff;fill-opacity:1"
       id="flowPara4850">.ch</flowPara></flowRoot>  <path
     id="path5308"
     d="M 0.19835023,0 H 512 v 512 l -513.50199,5.31487 z"
     style="fill:none;stroke:#000000;stroke-width:1.15554607px;stroke-linecap:butt;stroke-linejoin:miter;stroke-opacity:1" />
</svg>
