<?xml version="1.0" encoding="UTF-8" standalone="no"?>
<svg
   xmlns:dc="http://purl.org/dc/elements/1.1/"
   xmlns:cc="http://creativecommons.org/ns#"
   xmlns:rdf="http://www.w3.org/1999/02/22-rdf-syntax-ns#"
   xmlns:svg="http://www.w3.org/2000/svg"
   xmlns="http://www.w3.org/2000/svg"
   id="svg925"
   version="1.1"
   width="858.88361"
   viewBox="0 0 858.8836 1306.8011"
   height="1306.8011"
   style="enable-background:new">
  <metadata
     id="metadata929">
    <rdf:RDF>
      <cc:Work
         rdf:about="">
        <dc:format>image/svg+xml</dc:format>
        <dc:type
           rdf:resource="http://purl.org/dc/dcmitype/StillImage" />
        <dc:title></dc:title>
      </cc:Work>
    </rdf:RDF>
  </metadata>
  <defs
     id="defs897">
    <linearGradient
       x1="256"
       y1="18"
       gradientTransform="matrix(1,0,0,1.076,0,-19.36)"
       x2="256"
       gradientUnits="userSpaceOnUse"
       y2="494"
       id="a">
      <stop
         id="stop892"
         offset="0"
         style="stop-color:#eaeaea" />
      <stop
         id="stop894"
         offset="1"
         style="stop-color:#f4f4f4" />
    </linearGradient>
  </defs>
  <rect
     y="-4.3550491"
     x="0.21555519"
     height="1311.1561"
     width="858.66803"
     id="rect900-9"
     style="opacity:1;fill:#252525;fill-opacity:1;stroke:none;stroke-width:1.98780024;enable-background:new" />
  <path
     style="opacity:1;fill:#8b8b8b;fill-opacity:0.11372549;stroke:none;stroke-width:1.70570922;enable-background:new"
     d="M 858.88361,-4.3550491 V 1306.801 L 476.85364,1302.4461 298.05045,-6.6065689 Z"
     id="rect900-6-7" />
  <path
     id="rect900-6"
     d="M 859.09913,253.28177 858.88361,1306.8011 0.21555519,1306.801 -4.6455477,700.21049 Z"
     style="opacity:1;fill:#8b8b8b;fill-opacity:0.11372549;stroke:none;stroke-width:1.701419;enable-background:new" />
  <path
     id="path909"
     style="color:#000000;display:none;fill:#ffffff;stroke:#cccccc;stroke-width:4;enable-background:accumulate"
     d="m 0.50369568,1024.8913 c -7.84199998,0 -14.54999968,5.029 -17.31999968,12.19 -0.0612,-7e-4 -0.1208,0 -0.1823,0 -7.088,0 -12.83,6.002 -12.83,13.41 0,7.404 5.746,13.41 12.83,13.41 H 0.50139568 16.831396 c 5.155,0 9.333,-4.365 9.333,-9.75 0,-4.543 -2.974,-8.363 -7,-9.445 0.001,-0.1029 0,-0.2015 0,-0.3047 0,-10.77 -8.357,-19.5 -18.67000032,-19.5 z" />
  <path
     id="path911"
     d="m 497.7037,1247.3913 c -6.349,0 -11.78,4.072 -14.02,9.867 -0.0496,-6e-4 -0.0978,0 -0.1476,0 -5.738,0 -10.39,4.86 -10.39,10.85 0,5.995 4.652,10.85 10.39,10.85 h 14.17 13.22 c 4.173,0 7.557,-3.534 7.557,-7.894 0,-3.678 -2.408,-6.771 -5.667,-7.647 10e-4,-0.083 0,-0.1632 0,-0.2467 0,-8.719 -6.766,-15.79 -15.11,-15.79 z"
     style="color:#000000;display:none;fill:none;stroke:#cccccc;stroke-width:4;enable-background:accumulate" />
  <g
     id="g923"
     transform="translate(208.8037,-139.10871)"
     style="display:none">
    <path
       id="path913"
       style="display:inline;fill:#0000ff;fill-opacity:0.08117999;stroke:#0000ff"
       d="M 166.1,576.4 H 346 c 145.3,0 166.1,20.74 166.1,165.9 v 144.2 c 0,145.2 -20.76,165.9 -166.1,165.9 H 166.1 C 20.8,1052.4 0,1032.4 0,886.9 V 742.7 C 0,597.5 20.76,576.8 166.1,576.8 Z" />
    <circle
       id="circle915"
       r="120"
       cy="238"
       transform="matrix(1.2,0,0,1.2,-51.2,528.8)"
       cx="256"
       style="color:#000000;display:inline;fill:#0000ff;fill-opacity:0.08117999;stroke:#0000ff;stroke-width:0.83329999;enable-background:accumulate" />
    <rect
       id="rect917"
       x="120"
       y="678.40002"
       width="272"
       height="272"
       style="color:#000000;display:inline;fill:#0000ff;fill-opacity:0.08117999;stroke:#0000ff;stroke-linecap:round;stroke-linejoin:round;enable-background:accumulate" />
    <rect
       id="rect919"
       x="104"
       y="694.40002"
       width="304"
       height="240"
       style="color:#000000;display:inline;fill:#0000ff;fill-opacity:0.08117999;stroke:#0000ff;stroke-linecap:round;stroke-linejoin:round;enable-background:accumulate" />
    <rect
       id="rect921"
       x="136"
       y="662.40002"
       width="240"
       height="304"
       style="color:#000000;display:inline;fill:#0000ff;fill-opacity:0.08117999;stroke:#0000ff;stroke-linecap:round;stroke-linejoin:round;enable-background:accumulate" />
  </g>
  <rect
     style="fill:#323232;fill-opacity:0.1254902;enable-background:new"
     y="413.25235"
     x="0.21555519"
     height="512"
     width="512"
     id="rect293" />
  <flowRoot
     transform="matrix(1.2063268,0,0,1.2063268,240.86829,506.6608)"
     style="font-style:normal;font-weight:normal;font-size:40px;line-height:1.25;font-family:sans-serif;letter-spacing:0px;word-spacing:0px;fill:#ffffff;fill-opacity:1;stroke:none;enable-background:new"
     id="flowRoot4811"
     xml:space="preserve"><flowRegion
       style="fill:#ffffff;fill-opacity:1"
       id="flowRegion4813"><rect
         style="fill:#ffffff;fill-opacity:1"
         y="73.823257"
         x="-190.51163"
         height="557.24652"
         width="1341.9163"
         id="rect4815" /></flowRegion><flowPara
       style="font-size:96px;fill:#ffffff;fill-opacity:1"
       id="flowPara4817">search</flowPara></flowRoot>  <rect
     y="611.71747"
     x="395.14581"
     height="92.87442"
     width="107.16279"
     id="rect4834"
     style="fill:#b00000;fill-opacity:1;enable-background:new" />
  <flowRoot
     transform="matrix(1.0961573,0,0,1.0480787,368.99436,622.81974)"
     style="font-style:normal;font-weight:normal;font-size:40px;line-height:1.25;font-family:sans-serif;letter-spacing:0px;word-spacing:0px;fill:#000000;fill-opacity:1;stroke:none;enable-background:new"
     id="flowRoot4844"
     xml:space="preserve"><flowRegion
       id="flowRegion4846"><rect
         y="16.669767"
         x="21.432558"
         height="400.07443"
         width="372.68839"
         id="rect4848" /></flowRegion><flowPara
       style="font-size:64px;fill:#ffffff;fill-opacity:1"
       id="flowPara4850">.ch</flowPara></flowRoot></svg>
